<?xml version="1.0" standalone="no"?><!DOCTYPE svg PUBLIC "-//W3C//DTD SVG 1.1//EN" "http://www.w3.org/Graphics/SVG/1.1/DTD/svg11.dtd"><svg t="1710214598638" class="icon" viewBox="0 0 1024 1024" version="1.1" xmlns="http://www.w3.org/2000/svg" p-id="17093" width="40" height="40" xmlns:xlink="http://www.w3.org/1999/xlink"><path d="M334.147325 656.390701c0.511998 15.549373 77.055669 56.125199 77.055668 56.125198s75.263676 41.343822 103.356996 41.343823c28.349318 0 101.053005-41.599821 101.053005-41.599822s66.815713-34.81585 76.73823-54.015767c9.727958-18.943919-72.642248-60.41574-75.263676-61.885174-2.43199-1.407994-78.402223-45.183806-112.450076-39.55183-34.87729 5.887975-96.701024 43.325254-96.701025 43.325254s-74.301121 40.770385-73.789122 56.258318z m453.814368-302.974697c13.95194 24.642454 85.95419 67.711709 85.954191 67.711708s62.975729 41.215823 84.607636 40.319827c21.181349-0.834556 17.151926-92.799601 17.085366-95.743588 0-2.877428 1.218555-90.429051-20.607911-117.564935-22.143905-27.391882-85.119634-63.037169-85.119634-63.037169s-71.935691-44.738368-85.181074-36.607842c-13.378502 7.997406-11.202512 94.586473-11.202511 94.586473s0.767997 85.826191 14.463937 110.335526zM717.823115 377.674459c-22.210464-27.391882-85.119634-63.103729-85.119634-63.103728s-71.935691-44.610368-85.247633-36.546403c-13.250503 8.063965-11.202512 94.658153-11.202512 94.658153s0.834556 85.626512 14.658497 110.268966c13.88538 24.642454 85.759631 67.711709 85.759631 67.711708s63.103729 41.149263 84.669076 40.319827c21.247909-0.834556 17.151926-92.9276 17.023927-95.810148 0-2.877428 1.151995-90.490491-20.541352-117.503495z m-171.519263-171.708701c13.762501 24.637334 85.759631 67.706589 85.759632 67.706588s63.037169 41.154383 84.669076 40.319827c21.186469-0.767997 17.151926-92.799601 17.090486-95.805028 0-2.815988 1.023996-90.495611-20.674471-117.436935-22.077345-27.519882-85.119634-63.042289-85.119634-63.042289S556.031811-7.091886 542.786428 0.977199c-13.378502 7.997406-11.135952 94.653033-11.135952 94.653033s0.701437 85.631632 14.653376 110.335526z m314.617528 521.971515c-2.43199-1.341434-78.335663-45.245245-112.506397-39.41871-34.754411 5.693416-96.639584 43.258694-96.639584 43.258694s-74.30624 40.703825-73.855682 56.258318c0.639997 15.487933 77.117108 56.125199 77.117108 56.125198s75.263676 41.343822 103.295556 41.343823c28.349318 0 101.119565-41.727821 101.119565-41.727821s66.815713-34.81585 76.67167-54.015768c9.855958-18.877359-72.447688-60.47718-75.202236-61.823734z m119.362046-85.242513c0.06144-2.882548 1.085435-90.429051-20.674471-117.503495-22.077345-27.453322-85.119634-63.042289-85.119634-63.042289s-71.807691-44.666688-85.181073-36.669282c-13.250503 8.130525-11.202512 94.719593-11.202512 94.719592s0.834556 85.631632 14.658497 110.335526c13.823941 24.509335 85.759631 67.711709 85.759631 67.711709s63.037169 41.082703 84.735636 40.381266c21.247909-0.962556 17.085367-92.98904 17.023926-95.933027zM445.312287 796.672978c9.666518-18.877359-72.637128-60.34918-75.325116-61.823735-2.43199-1.341434-78.335663-45.178686-112.511517-39.48527-34.687851 5.826535-96.639584 43.263814-96.639584 43.263814s-74.239681 40.831824-73.727683 56.381198c0.511998 15.554493 77.055669 56.063759 77.055669 56.063759s75.135677 41.343822 103.423555 41.343822c28.287878 0 101.058125-41.599821 101.058125-41.599821s66.682593-34.87729 76.666551-54.143767z m168.575275 69.7597c-2.43199-1.341434-78.269103-45.183806-112.450077-39.423831-34.81585 5.826535-96.767584 43.202374-96.767583 43.202374S330.49678 911.104485 331.008778 926.658979c0.511998 15.549373 77.055669 56.058639 77.055669 56.058639S483.133564 1024 511.360003 1024c28.221319 0 101.053005-41.599821 101.053005-41.599821s66.815713-34.81585 76.671671-54.015768c9.727958-18.943919-72.570568-60.54374-75.197117-61.951733z" fill="#54C5B0" p-id="17094"></path><path d="M341.504733 218.729863l-0.01024 0.547837-0.0512 1.566714c-0.117759 3.788784-0.419838 12.922824-0.266238 23.879577a581.562939 581.562939 0 0 0 22.358943-13.614022l0.409599-0.266238 0.066559-0.04096 0.01024-0.01024 0.834557-0.542718 0.844796-0.501758v-0.00512h0.01024l0.00512-0.00512 0.08704-0.051199 0.481278-0.291839 2.037751-1.244155a643.750192 643.750192 0 0 0 31.989622-20.99191c9.164761-6.435812 17.930163-13.035464 24.816534-18.979758 4.54654-3.927023 6.90685-6.410212 7.895006-7.470048 0.414718-1.443834 1.392634-4.935659 2.493429-11.233232 1.617913-9.24156 2.846708-20.464552 3.732464-31.897462a689.568875 689.568875 0 0 0 1.894392-41.635661l0.01024-0.578558v-0.609277l0.01536-0.471038V94.150558l0.01536-0.588797 0.046079-2.45759a630.847847 630.847847 0 0 0-0.02048-20.602791 623.705478 623.705478 0 0 0-17.561524 10.332116l-0.486398 0.296958-0.09216 0.05632h-0.00512l-0.00512 0.01024-0.926716 0.573438-0.947196 0.532477-0.005119 0.00512h-0.00512l-0.01024 0.01024-0.0512 0.0256-0.394239 0.225279-1.745912 1.008636a579.197509 579.197509 0 0 0-28.845956 17.955763c-18.165682 12.088268-32.706419 23.587739-38.579034 30.484349-0.1024 0.343039-1.530873 3.215346-3.256306 10.255315-2.140151 8.719323-3.742704 19.594156-4.843499 31.108987-2.063351 21.616547-1.960952 40.959824-1.945592 44.369729v0.983036zM396.032499 37.707921S467.968189-7.025327 481.218692 1.038639c1.669113 0.988156 3.092467 3.189746 4.311022 6.287333 8.591323 21.841826 6.819811 88.30426 6.81981 88.30426v0.322559l-0.010239 0.691197c-0.08704 7.03997-0.844796 49.192748-6.210534 80.649893-2.037751 11.929549-4.73086 22.312864-8.304604 28.671877-3.491825 6.225893-10.700754 13.629381-19.527596 21.222308-26.091408 22.435744-66.293475 46.4894-66.293475 46.4894s-7.249889 4.73086-17.674164 10.951633l-1.167355 0.696317c-20.372392 12.098508-51.803937 29.209474-65.827557 28.671877-1.791992-0.06656-3.394545-0.778237-4.838379-2.022391-1.566713-1.351674-2.938867-3.333106-4.147182-5.811175-6.538212-13.414342-8.151005-41.359182-8.381404-62.187253l-0.00512-0.573437c-0.117759-11.955149 0.215039-21.468068 0.317438-24.371096l0.0256-0.844796v-0.394238c-0.0256-4.362221-0.220159-38.655834 4.7923-70.194898 3.015667-18.995118 7.915486-36.986721 15.882171-46.847799 22.015905-27.519882 85.053074-63.042289 85.053075-63.042289zM242.740358 152.410788c-0.947196-1.853432-2.001911-3.199986-3.174387-3.916783-13.445062-8.063965-85.380753 36.669282-85.380752 36.669282s-62.975729 35.583847-85.053075 62.975729c-21.186469 26.419086-20.715431 110.094887-20.674471 117.160456v0.419839c-0.122879 2.918387-3.481585 80.117415 12.195788 93.700717 1.443834 1.254395 3.046387 1.960952 4.833259 2.027511 14.00826 0.537598 45.378365-16.527289 65.750757-28.620677l1.203195-0.716797c10.444755-6.236133 17.715124-10.982353 17.715124-10.982353s40.161107-24.012697 66.257635-46.45356c8.831962-7.598047 16.051131-15.011775 19.563436-21.258148 4.776939-8.488923 8.002526-24.289176 10.178516-41.338703 4.121582-32.291701 4.479981-69.058263 4.479981-69.058263s0.255999-10.649554 0.0256-24.831893l-0.01536-0.844796c-0.394238-22.538143-2.047991-53.46281-7.905246-64.931561zM199.445824 217.910666a672.02783 672.02783 0 0 1 0.01024 23.142301l-0.01024 0.588797V241.785124l-0.01024 0.358398V242.5224l-0.00512 0.11776-0.01024 0.583677-0.04096 2.46783a697.407561 697.407561 0 0 1-1.935351 39.280471c-0.906236 11.458511-2.150391 22.701982-3.778544 31.964022-1.105915 6.297573-2.078711 9.779158-2.498549 11.228112-0.993276 1.070075-3.363826 3.563505-7.915486 7.495648-6.89149 5.944294-15.656893 12.543946-24.811414 18.969518a641.7534 641.7534 0 0 1-33.996654 22.210465l-0.476157 0.291839-0.09216 0.051199-0.01024 0.00512-0.855036 0.511998-0.829437 0.542718h-0.00512l-0.00512 0.00512-0.01024 0.00512-0.066559 0.04608-0.409599 0.266238-1.771512 1.131516a578.419273 578.419273 0 0 1-20.597671 12.487626c-0.189439-13.071304 0.255999-23.454619 0.291838-24.253336l0.0512-1.116155v-1.111035-0.445438c-0.02048-3.440625-0.122879-22.763422 1.945592-44.37485 1.095675-11.51995 2.698228-22.399904 4.843499-31.144826 1.704953-6.96317 3.128307-9.907157 3.292146-10.362835 6.041574-6.95293 20.561832-18.385841 38.568794-30.376829a587.671073 587.671073 0 0 1 30.612348-19.000239l0.394239-0.230399 0.051199-0.03072h0.01024l0.00512-0.00512h0.00512l0.921596-0.522237 0.895996-0.563198h0.01024l0.00512-0.00512 0.09216-0.05632 0.481278-0.296958 2.032631-1.239035a586.944036 586.944036 0 0 1 15.615933-9.134041z m90.971769 206.847111c3.020787-19.071918 7.920606-37.17104 15.887291-47.088438 3.491825-4.311021 7.997406-8.826842 13.112264-13.383622 27.309963-24.319895 71.945931-49.658666 71.945931-49.658667s7.726047-4.797419 18.58552-10.961873l1.192955-0.675837c22.323104-12.620746 56.678156-30.29491 65.469158-24.970132l0.11264 0.076799c5.340137 3.455985 8.156125 19.757995 9.625558 37.877598 2.135031 26.419086 1.397754 56.703756 1.397754 56.703756l-0.01024 0.476158-0.00512 0.665597c-0.05632 3.957743-0.312319 17.745844-1.356794 34.493291-1.653753 26.572686-5.283817 60.584699-13.224903 74.63392-13.88538 24.642454-85.821071 67.711709-85.821071 67.711708s-62.975729 41.149263-84.607636 40.319827c-3.747824-0.138239-6.707171-3.118067-9.047001-7.951326-6.481892-13.419462-8.135645-41.113423-8.386524-61.844214l-0.01024-0.634877c-0.148479-13.798341 0.317439-24.371095 0.358398-25.313171v-0.389119c-0.0256-4.362221-0.199679-38.558554 4.78206-70.082258z m-44.482369 70.476497l-0.03072-1.766393c-0.414718-22.405024-2.088951-52.515614-7.833566-63.948525-0.942076-1.868792-1.996791-3.235826-3.164146-3.993583a4.951019 4.951019 0 0 0-0.08704-0.051199c-8.862682-5.273577-43.187014 12.364747-65.520358 24.985492l-1.203195 0.680957a613.107124 613.107124 0 0 0-18.65208 11.007953s-44.559168 25.226132-71.853771 49.586987c-5.119978 4.57214-9.635799 9.113561-13.137864 13.450182-21.201829 26.383247-20.771751 110.212646-20.73591 117.119496v0.383999l-0.02048 0.747516c-0.312319 9.2774-3.179506 94.258795 17.110966 95.118951 2.30399 0.0768 5.084138-0.322559 8.197085-1.090555 20.397992-5.048298 55.428882-26.076048 69.908179-35.123049l1.464314-0.916476c3.225586-2.022391 5.099498-3.251186 5.099498-3.251186s30.806908-18.483121 55.981839-38.107996c13.317063-10.383315 25.062292-21.084069 29.844352-29.537153 4.792299-8.570843 8.017886-24.478615 10.188756-41.594701 4.075502-32.220021 4.403181-68.740824 4.403181-68.740825s0.266239-10.716114 0.04096-24.959892z m-51.24074 24.499094v-0.409598l0.01536-0.399358v-0.13824l0.01536-0.588797 0.04096-2.462709a644.907307 644.907307 0 0 0-0.04608-20.828071 624.104836 624.104836 0 0 0-17.689524 10.383315l-0.481278 0.296959-0.092159 0.0512-0.00512 0.00512-0.00512 0.00512-0.870396 0.542718-0.885757 0.496637-0.00512 0.00512h-0.00512l-0.010239 0.01024-0.0512 0.0256-0.394239 0.230399-1.740792 1.008636a590.850579 590.850579 0 0 0-28.815236 17.996723c-17.991603 12.001228-32.5477 23.475099-38.625114 30.484348-0.153599 0.445438-1.576953 3.368946-3.287026 10.332116-2.150391 8.734682-3.758064 19.614636-4.863979 31.129466-2.083831 21.662627-1.991671 41.046863-1.976312 44.369729v0.962556l-0.010239 0.558078-0.03584 1.305594c-0.117759 3.578865-0.409598 12.902345-0.235519 24.125337a603.430365 603.430365 0 0 0 20.618151-12.492747l1.771512-1.136635 0.409599-0.261119 0.066559-0.04608 0.00512-0.00512h0.00512l0.00512-0.00512 0.793597-0.517117 0.808956-0.486398 0.00512-0.00512h0.00512l0.00512-0.00512 0.09216-0.0512 0.481278-0.296959 2.047991-1.249274a648.122653 648.122653 0 0 0 32.025462-21.05335c9.164761-6.440932 17.955763-13.050824 24.867733-19.000238 4.454381-3.839983 6.814691-6.297573 7.848927-7.403488 0.440318-1.520633 1.402874-5.012458 2.483189-11.187152 1.623033-9.26204 2.862068-20.495272 3.758064-31.933303a694.647893 694.647893 0 0 0 1.945591-41.661261l0.01024-0.583677v-0.11776zM359.322257 507.80382l0.005119-0.00512h0.00512l0.829437-0.547838 0.849916-0.506878h0.00512v-0.00512h0.01024l0.09216-0.05632 0.476158-0.291838 2.037751-1.244155a645.808423 645.808423 0 0 0 31.974262-21.00215c9.164761-6.430692 17.935283-13.035464 24.831894-18.984878 4.57214-3.942383 6.94781-6.446052 7.935966-7.511008 0.419838-1.433594 1.387514-4.899819 2.488309-11.156432 1.623033-9.2262 2.856948-20.444072 3.747824-31.876983a690.173032 690.173032 0 0 0 1.925111-41.656141l0.01024-0.583677V371.842804l0.01024-0.394238v-0.01024l0.00512-0.127999 0.01024-0.588798 0.04096-2.457589a641.80972 641.80972 0 0 0-0.05632-20.822951 622.026125 622.026125 0 0 0-17.612724 10.337236l-0.481278 0.296958-0.092159 0.0512v0.00512h-0.01024l-0.844797 0.532478-0.860156 0.486398h-0.00512l-0.00512 0.00512-0.01024 0.00512-0.0512 0.03072-0.399358 0.230399-1.751032 1.013755a594.803202 594.803202 0 0 0-28.876676 18.058163c-17.930163 11.965389-32.48626 23.413659-38.640474 30.433149-0.204799 0.527358-1.592313 3.466225-3.266546 10.280916-2.140151 8.739802-3.742704 19.629996-4.848619 31.155066-2.073591 21.677987-1.986551 41.092943-1.966072 44.461888v1.551354l-0.0512 1.136635a449.380468 449.380468 0 0 0-0.286718 24.217496 576.64264 576.64264 0 0 0 22.348704-13.619142l0.409598-0.266239 0.06656-0.040959z" fill="#54C5B0" p-id="17095"></path></svg>