<?xml version="1.0" standalone="no"?><!DOCTYPE svg PUBLIC "-//W3C//DTD SVG 1.1//EN" "http://www.w3.org/Graphics/SVG/1.1/DTD/svg11.dtd"><svg t="1710211728569" class="icon" viewBox="0 0 1024 1024" version="1.1" xmlns="http://www.w3.org/2000/svg" p-id="6297" xmlns:xlink="http://www.w3.org/1999/xlink" width="28" height="28"><path d="M572.401664 354.358272l10.948608-37.147648c1.293312-3.832832 0.795648-8.062976-1.393664-11.470848L503.42912 183.793664l-9.7536 42.348544c-1.045504 4.77696-0.149504 9.827328 2.586624 13.858816l76.13952 114.357248zM731.5968 311.015424l11.296768-29.584384-138.544128 33.51552c-3.830784 0.919552-6.967296 3.88096-8.260608 7.862272l-10.748928 34.139136 129.685504-31.152128c7.46496-1.818624 13.734912-7.315456 16.571392-14.780416M367.374336 473.542656l-32.14848 86.73792c-4.130816 10.998784-2.885632 23.589888 3.185664 33.441792l69.121024 111.722496c6.767616 10.995712 22.094848 9.603072 26.923008-2.53952l34.78528-86.340608c4.578304-11.395072 3.335168-24.730624-3.234816-34.932736l-71.65952-111.371264c-6.966272-10.898432-22.393856-9.058304-26.97216 3.28192M397.381632 739.830784l-71.610368-111.323136c-7.016448-10.848256-22.494208-9.007104-27.072512 3.234816l-32.147456 86.78912c-4.08064 11.04896-2.886656 23.58784 3.283968 33.440768l69.072896 111.67232c6.767616 11.046912 22.145024 9.603072 26.97216-2.489344l34.735104-86.340608c4.579328-11.396096 3.385344-24.682496-3.233792-34.983936M299.546624 534.207488c6.1696 11.045888 19.954688 9.652224 24.333312-2.440192l31.003648-86.141952c4.179968-11.396096 3.03616-24.633344-2.935808-34.93376l-64.94208-111.396864c-6.36928-10.898432-20.253696-9.105408-24.33536 3.160064l-28.812288 86.540288c-3.684352 11.046912-2.489344 23.537664 3.035136 33.441792l62.65344 111.770624zM286.159872 564.163584l-64.893952-111.37024c-6.36928-10.898432-20.253696-9.157632-24.333312 3.185664L168.118272 542.5152c-3.682304 10.998784-2.538496 23.539712 3.035136 33.441792l62.60224 111.720448c6.171648 11.099136 19.955712 9.65632 24.385536-2.487296l31.002624-86.0416c4.13184-11.395072 3.03616-24.68352-2.983936-34.98496M473.669632 734.206976l127.59552-31.398912c11.34592-2.788352 21.001216-10.55232 25.926656-20.702208l38.368256-80.121856c5.474304-11.34592-4.129792-22.592512-16.820224-19.703808l-129.087488 29.46048c-11.943936 2.78528-22.1952 11.045888-26.873856 21.793792l-36.376576 81.466368c-5.075968 11.395072 4.727808 22.341632 17.267712 19.206144M840.92928 541.171712l-124.01152 28.962816c-11.446272 2.686976-21.300224 10.648576-25.877504 21.001216l-35.282944 78.230528c-4.926464 10.945536 4.4288 21.446656 16.52224 18.361344l122.518528-30.703616c10.84928-2.738176 20.20352-10.251264 24.933376-20.005888l37.173248-76.986368c5.322752-10.897408-3.833856-21.645312-15.975424-18.860032M585.739264 734.754816l-129.18784 29.509632c-11.89376 2.738176-22.095872 10.996736-26.873856 21.848064l-36.327424 81.362944c-5.076992 11.446272 4.676608 22.344704 17.267712 19.258368L538.2144 855.333888c11.395072-2.788352 21.001216-10.549248 25.926656-20.752384l38.417408-80.021504c5.425152-11.4432-4.178944-22.690816-16.8192-19.805184M778.624 692.058112l-124.012544 28.962816c-11.395072 2.686976-21.298176 10.6496-25.87648 21.000192l-35.231744 78.278656c-4.977664 10.948608 4.427776 21.397504 16.521216 18.363392l122.468352-30.752768c10.898432-2.688 20.25472-10.203136 24.932352-20.005888l37.224448-76.986368c5.2736-10.898432-3.883008-21.648384-16.0256-18.860032M848.54272 484.841472L768.52224 360.777728c-7.9616-12.340224-22.344704-18.26304-36.278272-14.977024l-122.319872 29.010944c-10.799104 2.53952-15.77472 15.47776-9.7536 25.132032l78.129152 124.309504c7.81312 12.540928 22.393856 18.663424 36.477952 15.279104l124.060672-29.40928c10.899456-2.540544 15.926272-15.67744 9.704448-25.281536m-21.846016 5.871616a6.07744 6.07744 0 0 1-3.434496 1.045504c-2.239488 0-4.28032-1.145856-5.474304-3.037184l-66.931712-105.797632c-3.683328-5.774336-9.802752-9.306112-16.32256-9.306112-1.39264 0-2.737152 0.198656-4.130816 0.447488l-95.099904 22.146048h-0.447488c-4.179968 0-6.618112-2.089984-7.216128-5.025792-0.795648-3.483648 1.492992-6.967296 4.878336-7.665664l95.09888-22.093824c2.239488-0.49664 4.4288-0.697344 6.669312-0.697344 10.94656 0 21.446656 5.822464 27.369472 15.228928l67.033088 105.797632c0.894976 1.494016 1.193984 3.18464 0.8448 4.878336-0.448512 1.690624-1.393664 3.132416-2.83648 4.079616M657.30048 530.373632l-78.030848-124.309504c-7.913472-12.592128-22.494208-18.6624-36.476928-15.32928l-122.021888 28.962816c-10.799104 2.538496-15.82592 15.47776-9.803776 25.132032L488.897536 569.1392c7.862272 12.540928 22.493184 18.6624 36.52608 15.327232l122.121216-28.962816c10.799104-2.586624 15.82592-15.424512 9.755648-25.129984m-19.608576 6.320128c-1.045504 0.647168-2.189312 0.997376-3.434496 0.997376-2.239488 0-4.279296-1.09568-5.425152-3.037184l-66.930688-105.797632c-3.73248-5.72416-9.803776-9.305088-16.372736-9.305088-1.39264 0-2.737152 0.198656-4.129792 0.497664l-96.891904 23.687168h-0.447488c-4.180992 0-6.668288-2.040832-7.266304-4.927488-0.746496-3.531776 1.44384-7.015424 4.926464-7.763968l96.89088-23.638016c2.239488-0.497664 4.477952-0.69632 6.668288-0.69632 10.99776 0 21.448704 5.772288 27.419648 15.228928l66.982912 105.796608a6.690816 6.690816 0 0 1 0.845824 4.878336c-0.347136 1.690624-1.391616 3.085312-2.835456 4.079616M743.988224 247.515136l-71.561216-108.535808c-7.862272-11.968512-21.946368-17.815552-35.631104-14.779392l-116.04992 25.852928c-11.047936 2.436096-16.172032 15.649792-9.852928 25.304064l73.899008 114.656256c6.171648 9.652224 17.46944 14.281728 28.316672 11.744256l121.324544-28.814336c10.948608-2.5856 15.926272-15.771648 9.554944-25.427968m-20.104192 6.470656a5.605376 5.605376 0 0 1-3.135488 0.944128 5.732352 5.732352 0 0 1-4.927488-2.760704l-60.910592-96.219136c-3.284992-5.251072-8.8576-8.410112-14.830592-8.410112-1.19296 0-2.48832 0.14848-3.73248 0.422912l-88.630272 20.327424c-0.099328 0 0.19968 1.219584 0.100352 1.219584-3.781632 0-6.469632-3.060736-7.066624-5.697536-0.646144-3.209216 1.393664-6.370304 4.478976-7.042048l88.530944-20.329472a28.491776 28.491776 0 0 1 6.120448-0.671744c9.95328 0 19.508224 5.301248 24.882176 13.860864l60.863488 96.219136c0.8448 1.317888 1.193984 2.910208 0.8448 4.4288-0.398336 1.567744-1.24416 2.86208-2.587648 3.707904M541.646848 346.098688L470.286336 232.43776c-7.863296-12.393472-22.1952-18.511872-36.078592-15.403008l-123.067392 27.370496c-10.898432 2.438144-16.023552 15.501312-10.002432 25.18016l72.20736 115.229696c7.912448 12.53888 22.544384 18.710528 36.527104 15.327232l121.971712-28.91264c10.799104-2.587648 15.77472-15.47776 9.802752-25.131008m-22.393856 2.98496c-0.996352 0.596992-2.040832 0.896-3.183616 0.896-1.990656 0-3.883008-0.995328-4.927488-2.737152l-60.860416-96.219136c-3.334144-5.248-8.907776-8.409088-14.830592-8.409088-1.243136 0-2.536448 0.17408-3.731456 0.423936l-89.07776 19.954688h-0.448512c-3.781632 0-5.971968-1.866752-6.56896-4.528128a5.900288 5.900288 0 0 1 4.478976-7.017472l89.07776-19.929088c1.990656-0.474112 3.981312-0.671744 6.071296-0.671744 9.952256 0 19.5072 5.2992 24.881152 13.858816l60.91264 96.219136a5.972992 5.972992 0 0 1 0.746496 4.4288c-0.350208 1.590272-1.245184 2.835456-2.53952 3.730432" p-id="6298" fill="#2FC1A5"></path></svg>