<svg width="169" height="27" viewBox="0 0 169 27" fill="none" xmlns="http://www.w3.org/2000/svg">
<path d="M0.876 26V2.2H2.95L19.372 22.872H18.284V2.2H20.766V26H18.692L2.304 5.328H3.392V26H0.876ZM35.4022 26.17C33.8835 26.17 32.5575 25.8867 31.4242 25.32C30.2909 24.7533 29.4069 23.9033 28.7722 22.77C28.1602 21.6367 27.8542 20.22 27.8542 18.52V8.15H30.2682V18.248C30.2682 20.152 30.7329 21.5913 31.6622 22.566C32.6142 23.518 33.9402 23.994 35.6402 23.994C36.8869 23.994 37.9635 23.7447 38.8702 23.246C39.7995 22.7247 40.5022 21.9767 40.9782 21.002C41.4769 20.0273 41.7262 18.86 41.7262 17.5V8.15H44.1402V26H41.8282V21.104L42.2022 21.988C41.6355 23.3027 40.7515 24.334 39.5502 25.082C38.3715 25.8073 36.9889 26.17 35.4022 26.17ZM73.172 7.98C74.6226 7.98 75.8806 8.26333 76.946 8.83C78.034 9.374 78.8726 10.2127 79.462 11.346C80.074 12.4793 80.38 13.9073 80.38 15.63V26H77.966V15.868C77.966 13.9867 77.5126 12.57 76.606 11.618C75.722 10.6433 74.464 10.156 72.832 10.156C71.608 10.156 70.5426 10.4167 69.636 10.938C68.752 11.4367 68.0606 12.1733 67.562 13.148C67.086 14.1 66.848 15.256 66.848 16.616V26H64.434V15.868C64.434 13.9867 63.9806 12.57 63.074 11.618C62.1673 10.6433 60.898 10.156 59.266 10.156C58.0646 10.156 57.0106 10.4167 56.104 10.938C55.1973 11.4367 54.4946 12.1733 53.996 13.148C53.52 14.1 53.282 15.256 53.282 16.616V26H50.868V8.15H53.18V12.978L52.806 12.128C53.35 10.836 54.2226 9.82733 55.424 9.102C56.648 8.354 58.0873 7.98 59.742 7.98C61.4873 7.98 62.972 8.422 64.196 9.306C65.42 10.1673 66.2133 11.4707 66.576 13.216L65.624 12.842C66.1453 11.3913 67.0633 10.224 68.378 9.34C69.7153 8.43333 71.3133 7.98 73.172 7.98ZM96.1405 26.17C94.5765 26.17 93.1712 25.8187 91.9245 25.116C90.6779 24.3907 89.6919 23.348 88.9665 21.988C88.2412 20.628 87.8785 18.9847 87.8785 17.058C87.8785 15.1087 88.2412 13.4653 88.9665 12.128C89.7145 10.768 90.7119 9.73667 91.9585 9.034C93.2052 8.33133 94.5992 7.98 96.1405 7.98C97.8405 7.98 99.3592 8.36533 100.697 9.136C102.057 9.884 103.122 10.938 103.893 12.298C104.663 13.658 105.049 15.2447 105.049 17.058C105.049 18.8487 104.663 20.4353 103.893 21.818C103.122 23.178 102.057 24.2433 100.697 25.014C99.3592 25.7847 97.8405 26.17 96.1405 26.17ZM86.9265 26V0.771999H89.3405V13.42L89.0005 17.024L89.2385 20.628V26H86.9265ZM95.9705 24.028C97.2399 24.028 98.3732 23.7447 99.3705 23.178C100.368 22.5887 101.161 21.7727 101.751 20.73C102.34 19.6647 102.635 18.4407 102.635 17.058C102.635 15.6527 102.34 14.4287 101.751 13.386C101.161 12.3433 100.368 11.5387 99.3705 10.972C98.3732 10.3827 97.2399 10.088 95.9705 10.088C94.7012 10.088 93.5565 10.3827 92.5365 10.972C91.5392 11.5387 90.7459 12.3433 90.1565 13.386C89.5899 14.4287 89.3065 15.6527 89.3065 17.058C89.3065 18.4407 89.5899 19.6647 90.1565 20.73C90.7459 21.7727 91.5392 22.5887 92.5365 23.178C93.5565 23.7447 94.7012 24.028 95.9705 24.028ZM117.552 26.17C115.693 26.17 114.061 25.7847 112.656 25.014C111.25 24.2207 110.151 23.144 109.358 21.784C108.564 20.4013 108.168 18.826 108.168 17.058C108.168 15.29 108.542 13.726 109.29 12.366C110.06 11.006 111.103 9.94067 112.418 9.17C113.755 8.37667 115.251 7.98 116.906 7.98C118.583 7.98 120.068 8.36533 121.36 9.136C122.674 9.884 123.706 10.9493 124.454 12.332C125.202 13.692 125.576 15.2673 125.576 17.058C125.576 17.1713 125.564 17.296 125.542 17.432C125.542 17.5453 125.542 17.67 125.542 17.806H110.004V16.004H124.25L123.298 16.718C123.298 15.426 123.014 14.2813 122.448 13.284C121.904 12.264 121.156 11.4707 120.204 10.904C119.252 10.3373 118.152 10.054 116.906 10.054C115.682 10.054 114.582 10.3373 113.608 10.904C112.633 11.4707 111.874 12.264 111.33 13.284C110.786 14.304 110.514 15.4713 110.514 16.786V17.16C110.514 18.52 110.808 19.7213 111.398 20.764C112.01 21.784 112.848 22.5887 113.914 23.178C115.002 23.7447 116.237 24.028 117.62 24.028C118.708 24.028 119.716 23.8353 120.646 23.45C121.598 23.0647 122.414 22.4753 123.094 21.682L124.454 23.246C123.66 24.198 122.663 24.9233 121.462 25.422C120.283 25.9207 118.98 26.17 117.552 26.17ZM130.489 26V8.15H132.801V13.012L132.563 12.162C133.062 10.802 133.9 9.77067 135.079 9.068C136.258 8.34267 137.72 7.98 139.465 7.98V10.326C139.374 10.326 139.284 10.326 139.193 10.326C139.102 10.3033 139.012 10.292 138.921 10.292C137.04 10.292 135.566 10.87 134.501 12.026C133.436 13.1593 132.903 14.78 132.903 16.888V26H130.489ZM143.87 26V0.771999H146.284V26H143.87ZM160.583 26.17C158.724 26.17 157.092 25.7847 155.687 25.014C154.281 24.2207 153.182 23.144 152.389 21.784C151.595 20.4013 151.199 18.826 151.199 17.058C151.199 15.29 151.573 13.726 152.321 12.366C153.091 11.006 154.134 9.94067 155.449 9.17C156.786 8.37667 158.282 7.98 159.937 7.98C161.614 7.98 163.099 8.36533 164.391 9.136C165.705 9.884 166.737 10.9493 167.485 12.332C168.233 13.692 168.607 15.2673 168.607 17.058C168.607 17.1713 168.595 17.296 168.573 17.432C168.573 17.5453 168.573 17.67 168.573 17.806H153.035V16.004H167.281L166.329 16.718C166.329 15.426 166.045 14.2813 165.479 13.284C164.935 12.264 164.187 11.4707 163.235 10.904C162.283 10.3373 161.183 10.054 159.937 10.054C158.713 10.054 157.613 10.3373 156.639 10.904C155.664 11.4707 154.905 12.264 154.361 13.284C153.817 14.304 153.545 15.4713 153.545 16.786V17.16C153.545 18.52 153.839 19.7213 154.429 20.764C155.041 21.784 155.879 22.5887 156.945 23.178C158.033 23.7447 159.268 24.028 160.651 24.028C161.739 24.028 162.747 23.8353 163.677 23.45C164.629 23.0647 165.445 22.4753 166.125 21.682L167.485 23.246C166.691 24.198 165.694 24.9233 164.493 25.422C163.314 25.9207 162.011 26.17 160.583 26.17Z" fill="black"/>
</svg>
